<svg xmlns="http://www.w3.org/2000/svg" viewBox="0 0 18 18"><path d="M9 3a6 6 0 0 0 0 12a6 6 0 0 0 0 -12ZM7.6 4.2a5 5 0 0 0 0 9.6a8 8 0 0 1 0 -9.6ZM10.4 4.2a5 5 0 0 1 0 9.6a8 8 0 0 0 0 -9.6ZM9 4.1a7 7 0 0 0 0 9.8a7 7 0 0 0 0 -9.8" style="fill-rule: evenodd; fill: grey" /><path style="opacity: 0.5; fill: grey" d="M4.1 8a5 5 0 0 1 0.31 -1h1.85a8 8 0 0 0 -0.2 1ZM13.9 8a5 5 0 0 0 -0.31 -1h-1.85a8 8 0 0 1 0.2 1ZM4.1 10a5 5 0 0 0 0.31 1h1.85a8 8 0 0 1 -0.2 -1ZM13.9 10a5 5 0 0 1 -0.31 1h-1.85a8 8 0 0 0 0.2 -1ZM7.07 8a7 7 0 0 1 0.22 -1h3.42a7 7 0 0 1 0.22 1ZM7.07 10a7 7 0 0 0 0.22 1h3.42a7 7 0 0 0 0.22 -1Z" /></svg>